<?xml version="1.0" encoding="UTF-8"?>
<svg width="200pt" height="185pt" version="1.0" viewBox="0 0 200 185" xmlns="http://www.w3.org/2000/svg">
  <g transform="translate(0 185) scale(.1 -.1)" fill="#EDEDED">
    <path
      d="m1434 1804c-25-42-29-45-40-29-7 10-15 23-17 29-3 8-15 7-43-3-65-23-66-25-32-100l29-67-43-72c-38-64-44-70-55-55-19 25-16 44 10 71l22 24-35 30c-53 45-76 51-126 32-40-15-44-20-55-69-14-63-8-85 23-85 35 0 42-9 71-83l27-67-24-38c-17-27-35-41-67-50-65-20-69-25-51-76 15-42 15-44-12-91l-28-47-19 28c-24 37-24 37 6 84 14 22 25 44 25 49 0 11-66 51-85 51-8 0-18-7-23-16-8-14-13-10-31 19-11 19-21 40-21 47 0 6 21 47 47 90 47 79 47 79 93 82l45 3 3 43c2 24-1 49-7 56s-8 22-5 33c5 17-3 27-36 49-41 28-43 28-57 9-8-11-19-19-24-17-12 3-85-34-94-47-3-6 3-24 14-41l19-32-32-54c-17-29-33-54-36-54s-29 42-58 94l-52 93 29 66c33 73 32 75-32 102l-36 15-34-64-18 36c-26 50-33 53-79 27s-48-36-20-81c26-43 26-46-12-50-32-3-33-4-36-55l-3-51 68-7c37-3 73-8 78-10 6-2 27-35 48-74l38-71h-30c-22 0-31 6-37 23-12 41-21 46-64 33-56-16-81-45-87-98-5-41-3-46 36-81 49-44 63-46 85-11 16 24 21 25 74 19 91-10 99-13 121-50 18-31 19-41 10-90-5-30-7-60-4-65 3-6 21-10 39-10s39-6 48-12c15-13 58-80 58-92 0-3-18-6-39-6-36 0-41 4-65 45-15 25-32 45-39 45s-29-11-50-25c-32-22-36-29-27-45 10-19 7-20-38-20h-49l-92 172 19 39c11 21 20 41 20 43 0 8-77 46-93 46-8 0-20 7-27 15-10 13-17 12-50-5-47-24-54-34-40-59 7-13 7-22 0-26-5-3-10-28-10-56v-49h40c37 0 41-3 70-52 16-29 30-56 30-60 0-5-48-8-107-8h-108l-40 56c-22 31-43 58-48 61-9 5-87-45-87-56 0-4 7-16 15-27 23-30 18-34-36-34h-50l3-52 3-53 53-3c28-2 52-5 52-8s-7-15-15-28c-15-23-14-25 22-55 21-17 41-31 45-31 5 0 27 27 51 60l42 59 89 1h88l-15-22c-11-17-25-23-53-24-36 0-40-3-52-38-19-58-7-100 37-130 32-22 41-24 71-16 44 13 49 6 11-16-17-10-31-24-31-30 0-7-10-14-22-16-20-3-23-9-23-53 0-42 3-50 20-53 11-3 24-11 28-18 7-12 77-54 91-54 2 0 13 16 25 35 20 34 22 35 81 35 41 0 60-4 60-12 0-7-22-51-49-98l-48-85-71-10c-39-5-74-13-78-17-3-4-3-28 0-53 7-43 8-45 42-45h34l-20-40c-11-21-20-43-20-47 0-13 79-55 90-48 6 4 20 25 31 48 20 38 22 40 35 22 8-10 14-22 14-27 0-13 27-9 65 9 42 20 43 31 10 101-14 30-25 57-25 62 0 12 73 140 80 140 4 0 12-11 18-24 9-20 7-29-9-49-25-33-24-38 14-68 48-38 80-43 127-19 40 20 48 37 53 115 2 26-2 30-28 33-39 4-43 9-76 84l-27 62 19 39c11 21 28 40 37 43 52 17 92 39 92 51 0 8-7 28-16 45-15 28-14 33 8 74 12 24 26 44 29 44 4 0 17-17 29-37l22-37-21-37c-29-51-27-61 21-87 38-20 44-21 54-7 10 13 15 11 33-20 11-20 21-41 21-47s-19-43-42-83c-41-73-42-74-90-80l-50-7 6-52c3-28 6-63 7-77 0-20 10-31 41-49 41-23 41-23 57-3 9 11 22 18 29 15 7-2 31 8 53 22l39 26-38 76 30 48 30 49 110-194-22-54c-12-30-20-61-17-69s25-20 48-27c37-12 42-11 51 5 10 17 12 16 33-10l23-28 41 27c22 15 41 31 41 35s-9 22-20 40c-28 46-26 51 23 49l42-2v55 55l-79 5-80 5-44 73c-24 40-42 75-40 77 2 3 20 2 40-2 29-4 39-12 47-34 11-32 22-35 71-17 47 16 67 40 75 88 6 38 4 45-26 77-27 28-29 33-11 24 13-7 28-10 35-8s17-3 23-11c9-13 16-14 40-3 55 23 67 37 54 61-9 17-9 24 0 30 7 4 10 26 8 56l-3 49-44 5c-41 5-46 9-73 58l-30 52 81 2c45 1 93 2 108 2 21 1 37-11 71-54 25-30 50-56 56-57s27 11 46 27l34 30-17 29-17 30 47 3 48 3 3 53 3 52h-62-61l16 25c9 13 16 29 16 34 0 10-68 61-81 61-4 0-24-27-45-60l-39-60h-88-87l16 25c14 21 21 24 54 19l37-6 7 42c10 66-1 102-40 128-41 27-50 27-108 2-51-21-51-21-35-65 11-29 9-36-32-93-42-59-46-61-87-62-35 0-52 7-86 35-24 19-47 35-52 35s-20-16-33-35c-24-36-61-50-114-43l-27 3 66 110 112 6 7 44c7 51 2 65-26 65-24 0-24 2 7 51 24 39 28 41 62 35 21-3 63-6 94-6 55 0 59-2 80-35 13-19 29-35 36-35 15 0 75 39 80 52 2 4 10 8 17 8 21 0 37 36 33 78-2 30-7 38-25 40-13 2-23 7-23 12 0 10-89 65-94 59-1-2-13-19-26-37-22-34-23-34-79-27-31 4-58 8-59 10-2 2 20 44 50 93l53 90 70 6c38 4 73 10 76 14 4 4 5 28 2 55-5 46-6 47-40 47h-35l21 36c12 19 21 41 21 47 0 10-69 57-84 57-3 0-17-21-32-46zm67-5c20-10 20-11-5-54-14-24-26-48-26-54s18-11 39-11c31 0 41-4 46-21 4-11 4-23 1-26s-34-9-70-12c-36-4-67-9-70-11-20-21-134-226-128-231 4-4 46-9 94-12l88-6 15 29c9 17 19 30 23 30 17-1 37-21 37-37 0-13 9-19 33-21 29-3 33-6 30-30-2-21-9-28-30-30-20-2-28-9-28-22 0-11-9-24-20-30-17-9-23-6-41 24l-20 34-107 4c-59 2-111 2-117 1-16-6-76-115-71-130 3-7 17-13 31-13 20 0 25-5 25-25 0-24-3-25-54-25h-54l-47-80c-26-44-43-84-40-90 5-8 32-9 84-5 68 6 79 10 102 37 22 27 28 29 48 19 12-7 20-20 19-29-3-15 7-17 76-17h78l51 73c47 67 50 75 40 102-13 36 0 47 57 48 42 1 60-12 53-38-3-12 0-20 6-20 8 0 11-11 9-27-3-25-7-28-35-26-27 3-36-4-67-46-20-27-36-51-36-55 0-3 53-6 119-6h118l37 55c40 60 39 60 67 44 20-10 20-10-1-44-29-47-19-57 49-53 55 3 56 2 59-24 3-28 2-28-52-28-30 0-57-4-60-9-3-4 6-23 19-41 24-33 24-34 5-47-25-17-31-14-71 42l-32 45h-139c-95 0-138-3-138-11 0-6 19-45 42-85 41-72 43-74 80-74 34 0 38-3 38-25 0-13-8-28-17-34-15-8-16-12-3-35 12-24 12-28-6-41-17-13-21-12-39 10-15 18-24 22-32 14-12-12-53-3-53 12 0 6 7 23 15 39 15 29 14 32-43 127l-58 98h-71c-39 0-74-3-78-6-3-4 0-19 7-33 10-23 9-29-3-37-25-15-35-10-58 31l-22 40h-69c-38 0-72-5-75-10-4-6 8-37 27-68 31-52 38-58 81-66 40-8 47-13 47-33 0-14-6-23-15-23s-18-6-21-14c-6-15 52-125 70-132 6-2 49-8 96-13 82-9 86-9 110 14 19 18 29 21 43 14 9-6 17-17 17-25s7-17 15-20c22-9 19-45-5-51-11-3-20-14-20-24 0-11-4-19-9-19s-17-3-25-6c-12-5-19 2-27 25-8 22-17 31-34 31-12 0-43 3-69 6-61 9-60-1 6-114 57-98 63-102 166-102 40 0 42-1 42-30v-31l-49 7c-30 4-51 2-55-4-3-6 7-33 23-61 29-48 29-51 11-61-28-15-33-13-52 20-21 37-35 38-48 5-11-28-19-30-44-12-16 12-16 15 3 57 11 25 21 51 21 57 0 26-125 233-140 230-8-1-32-32-53-69l-38-68 18-30c16-27 16-32 3-40-8-6-27-7-42-4-21 4-28 1-33-15-7-24-24-27-50-8-12 10-14 16-7 21 18 11 14 46-4 46-11 0-14 8-12 28 3 23 8 28 42 32 38 5 42 9 92 95l53 89-32 59c-36 66-52 78-71 52-10-15-16-16-35-6-12 7-21 15-19 19l22 44 19 37-34 57c-19 32-39 59-45 61-7 2-28-26-49-62-37-66-37-66-21-106 16-39 16-40-6-48-14-5-28-5-36 2-15 12-12 16-57-62l-37-63 37-84c34-77 40-84 71-90 19-3 34-8 34-11 0-2-9-24-20-47-21-47-49-66-62-42-4 8-16 12-26 9-10-2-24 3-31 11-11 13-10 20 3 41 16 25 16 28-9 83l-26 57-19-22c-28-34-100-170-100-188 0-9 12-38 26-66s24-52 22-54c-2-1-12-7-24-13-18-10-23-7-37 24-21 42-33 43-55 3-34-63-46-73-70-60l-22 12 25 43c14 23 25 48 25 54s-19 12-43 14c-34 2-43 7-45 25-3 19 3 22 45 28 91 11 93 12 161 133 35 63 62 116 59 118-2 3-43 7-89 11-88 6-90 6-122-41-11-16-16-17-35-7-12 7-20 20-19 29 2 13-5 18-29 20-27 3-33 8-33 27 0 18 6 24 28 27 19 2 27 9 27 22 0 10 10 25 21 33 20 13 23 11 44-22l22-36 116 3 115 3 33 60c19 33 34 63 34 68 0 4-13 7-30 7-27 0-30 3-30 29 0 29 2 30 52 33 51 3 52 4 84 58 18 30 33 61 34 68 0 8-19 12-64 12-59 0-66-2-90-30-22-27-28-29-46-18-11 7-20 20-20 29 0 13-14 17-67 22-38 3-73 2-80-1-6-4-35-38-63-76-48-62-51-70-41-94 15-33 4-44-48-47-43-2-67 14-58 40 4 8 0 18-8 22-9 6-12 17-8 32 5 19 11 22 35 19 25-4 35 2 65 39 54 65 45 73-85 73h-110l-37-55c-21-30-41-55-45-55-3 0-15 6-25 14-18 13-18 14 4 45 12 17 19 35 16 41-3 5-33 10-66 10-56 0-59 1-59 25 0 23 4 25 48 25 69 0 80 11 52 49-17 26-19 35-10 46 20 25 33 17 73-40l38-55h135c102 0 134 3 134 13 0 17-70 150-84 159-6 4-23 8-38 8-22 0-28 5-28 21 0 12 7 27 16 34 14 10 15 15 4 35s-10 25 6 37c24 18 32 16 39-7 7-21 25-26 40-11 6 6 17 4 29-5 19-13 19-15 3-50l-18-36 53-97 53-96h75c78 0 83 4 66 46-5 10 1 19 17 26 21 10 25 7 46-33l24-44h68c37 0 70 3 72 8 3 4-14 39-36 79-40 68-44 72-85 78-38 6-42 9-36 28 4 12 13 27 21 32 12 9 9 21-23 75-20 36-38 66-38 67-1 1-42 7-91 13l-90 11-23-27c-22-25-24-26-42-9-11 10-20 24-20 32 0 7-4 13-10 13-5 0-10 12-10 26 0 17 6 28 20 31 11 3 20 11 20 18 0 12 21 25 40 25 5 0 15-12 22-27 11-24 21-29 68-35 30-4 58-3 62 1 4 3-18 52-50 106l-57 100-45 3c-76 4-90 10-90 37 0 23 4 25 45 25 25 0 45 3 45 7 0 3-13 30-30 59-29 52-29 54-10 64 26 14 36 7 60-41 11-21 25-39 30-39 6 0 18 16 27 35 13 28 21 34 37 29 31-10 31-9 2-78l-27-64 66-116c37-64 70-116 75-116 4 0 29 36 55 79 45 78 46 80 29 105-22 34-4 61 35 51 19-5 29-1 41 16 14 18 20 20 38 10 19-10 20-15 10-37s-9-27 5-35c9-6 17-21 17-34 0-22-4-25-39-25-39 0-40-1-99-97l-60-97 20-41c11-22 30-53 41-68l20-29 21 27c19 23 23 25 41 12 19-14 19-15-4-59l-24-44 21-39c45-87 45-87 91-15 42 65 46 90 26 142-9 22 33 42 53 25 15-12 15-13 63 71l31 52-35 83c-30 71-38 83-65 91-25 7-32 15-32 33 0 13 7 26 16 30 8 3 13 12 10 19-7 18 43 32 53 15 4-6 14-9 22-7 8 3 23-1 33-9 18-14 18-16 3-33-9-10-17-26-17-34 0-25 38-108 49-108 6 0 35 42 66 94 61 102 61 104 23 180-19 38-20 40-2 53 25 19 28 17 47-22 9-19 21-35 26-35s23 23 40 50c34 55 34 55 62 39zm-46-1011 48-82-18-50c-10-28-30-63-43-78-21-23-31-27-61-23-20 2-57 7-82 10-39 5-48 11-66 41-18 33-19 39-6 65 18 36 14 93-7 96-79 10-87 14-109 53l-22 40h46c43 0 47-2 73-45 15-25 30-45 35-45 4 0 25 11 47 25 34 22 39 29 34 50-6 24-4 25 39 25h44l48-82zm-785 64c0-5 19-24 42-42l41-33 29 36c25 31 36 37 69 37h39l-20-39c-19-39-22-40-77-43l-58-3v-55c0-49 2-55 22-58l23-3-23-40-22-39h-100-100l-23 35c-12 19-28 35-34 35-7 0-3 6 8 14 17 13 18 18 7 47-12 30-10 35 34 95 46 63 47 64 95 64 26 0 48-4 48-8z" />
  </g>
</svg>