<svg
  viewBox="0 0 96 25"
  xmlns="http://www.w3.org/2000/svg">
    <path d="m14.542 2.1227c0-1.2055 1.0331-2.1227 2.247-2.1227 1.2138 0 2.1953 0.9172 2.1953 2.1227 0 1.2055-0.9815 2.1489-2.1953 2.1489-1.2139 0-2.247-0.9434-2.247-2.1489zm-10.746 11.478h-3.7966c0 3.2495 2.5827 5.5818 6.4567 5.5818 3.1509 0 6.3534-1.7034 6.4051-5.2935 0.0516-1.7296-0.5682-4.1929-4.8813-5.4508l-2.1178-0.68135c-1.7304-0.49791-1.9112-1.3627-1.9112-1.8344 0-1.0744 0.98142-1.8082 2.2986-1.8082 1.498 0 2.2986 0.83858 2.2986 2.044h3.7707c0-3.4592-2.5827-5.5294-6.0176-5.5294-3.4091 0-6.121 2.1751-6.121 5.3984 0 1.6248 0.6715 3.957 4.5972 5.1887l2.1436 0.6027c1.8079 0.5241 2.1694 1.2317 2.1436 2.0441-0.02583 1.1792-1.0847 1.913-2.6085 1.913-1.7046 0-2.6085-1.0221-2.6602-2.1751zm14.774 5.2936v-12.238h-3.5641v12.238h3.5641zm8.6157-9.0408c1.4979 0 2.9184 1.0482 2.9184 2.8826 0 1.782-1.4463 2.9875-2.9184 2.9875-1.5238 0-2.8927-1.1531-2.8927-2.9875 0-1.7295 1.3689-2.8826 2.8927-2.8826zm-0.336 11.871c-1.2139 0-2.6344-0.8385-3.0476-1.9654-0.4518 0.2227-0.9488 0.4716-1.4458 0.7204l-4e-4 2e-4c-0.4972 0.249-0.9944 0.498-1.4464 0.7207 1.0073 2.2799 3.28 3.7998 5.9402 3.7998 4.2872 0 6.8183-2.5419 6.8183-7.8092v-10.535h-3.4867v1.5199c-0.594-1.1268-2.1178-1.782-3.6157-1.782-3.0992 0-6.0177 2.4895-6.0177 6.4204 0 3.8523 2.9185 6.3418 6.0177 6.3418 1.4979 0 3.0476-0.6552 3.6157-1.782 0.155 2.4371-0.594 4.3501-3.3316 4.3501zm12.705-9.303v6.4728h-3.59v-12.238h3.59v1.782c0.6456-1.2317 2.0661-2.044 3.4866-2.044 2.7118 0 4.4164 1.7034 4.4164 5.1888v7.3113h-3.59v-6.5252c0-1.6247-0.8781-2.4371-2.0919-2.4371-1.2656 0-2.2211 0.6289-2.2211 2.4895zm13.782 6.473v-12.238h-3.5641v12.238h3.5641zm-4.0287-16.772c0-1.2055 1.0331-2.1227 2.247-2.1227 1.2138 0 2.1953 0.9172 2.1953 2.1227 0 1.2055-0.9815 2.1489-2.1953 2.1489-1.2139 0-2.247-0.9434-2.247-2.1489zm14.054 1.3627v-3.4854h-0.594c-3.4608 0-5.4495 2.0702-5.4495 5.8176v0.83858h-2.2727v2.8826h2.2727v9.3554h3.6158v-9.3554h2.4277v-2.8826h-2.4277v-0.83858c0-1.4413 0.594-2.3323 1.8337-2.3323h0.594zm5.3757 3.1709v12.238h-3.5641v-12.238h3.5641zm-1.7818-6.6562c-1.2139 0-2.2469 0.9172-2.2469 2.1227 0 1.2055 1.033 2.1489 2.2469 2.1489s2.1953-0.9434 2.1953-2.1489c0-1.2055-0.9814-2.1227-2.1953-2.1227zm3.5693 12.736c0-3.8522 3.0992-6.3418 6.56-6.3418 2.1436 0 4.0806 0.94341 5.2428 2.5944l-2.9184 2.1227c-0.4907-0.7862-1.3946-1.2317-2.3244-1.2317-1.5238 0-2.9959 1.1006-2.9959 2.8564s1.4721 2.935 2.9959 2.935c0.9298 0 1.8337-0.4455 2.3244-1.2316l2.9184 2.0964c-1.1363 1.651-3.0734 2.6206-5.2428 2.6206-3.4608 0-6.56-2.5682-6.56-6.4204zm21.909 4.7694v1.3889h3.5641v-12.238h-3.5641v1.3627c-0.9298-1.3627-2.7376-1.6248-3.5124-1.6248-3.0734 0-6.1468 2.4371-6.1468 6.368 0 3.9309 3.0734 6.368 6.1468 6.368 0.9297 0 2.7376-0.4455 3.5124-1.6248zm-2.9178-1.834c-1.4979 0-3.0217-1.1531-3.0217-2.9089 0-1.7557 1.5238-2.9088 3.0217-2.9088 1.4722 0 2.9185 1.0744 2.9185 2.9088s-1.4463 2.9089-2.9185 2.9089z"
      clip-rule="evenodd"
      fill-rule="evenodd"
      fill="#EDEDED"
    />
</svg>
